# xmcd
#
# Track frame offsets: 
#        150
#        28677
#        54717
#        72234
#        96286
#        108511
#        128806
#        147111
#        164736
#        188788
#        210985
#        231914
#        262669
#        284877
#        304458
#
# Disc length: 4455 seconds
#
# Revision: 0
# Processed by: cddbd v1.5.2PL0 Copyright (c) Steve Scherf et al.
# Submitted via: ExactAudioCopy v1.0b4
#
DISCID=e511650f
DTITLE=Sampler - Jazz Meets Blues
DYEAR=2000
DGENRE=Jazz and Blues
TTITLE0=Telecats - Nelly 
TTITLE1=Blues Company - Cold Rain 
TTITLE2=Alison Krauss and Union Station - Baby, Now That I Found You
TTITLE3=Junior Wells - Use Me
TTITLE4=Sara K. - Oh Well
TTITLE5=Livingston Taylor - Isn't She Lovely
TTITLE6=Hank Shizzoe and Loose Gravel - The Live Of A Thief 
TTITLE7=Alison Krauss and Union Station - It Doesn’t Matter
TTITLE8=Oregon  - The Silence Of A Candle
TTITLE9=Pinetop Perkins - For You My Love 
TTITLE10=Toscho - Route 66
TTITLE11=Hans Theessink  - Missing You 
TTITLE12=Junior Wells - Sweet Sixteen
TTITLE13=Alison Krauss and Union Station - Looking In My Eyes Of Love
TTITLE14=Larry Conklin - Dolphin Grace
EXTD=
EXTT0=
EXTT1=
EXTT2=
EXTT3=
EXTT4=
EXTT5=
EXTT6=
EXTT7=
EXTT8=
EXTT9=
EXTT10=
EXTT11=
EXTT12=
EXTT13=
EXTT14=
PLAYORDER=
